<svg width="18" height="21" viewBox="0 0 18 21" fill="none" xmlns="http://www.w3.org/2000/svg">
<path d="M9.00009 2.84224L4.46259 7.37974C3.56527 8.27716 2.95421 9.4205 2.70668 10.6652C2.45914 11.9099 2.58625 13.2 3.07193 14.3725C3.55761 15.5449 4.38005 16.547 5.43525 17.2521C6.49046 17.9571 7.73103 18.3334 9.00009 18.3334C10.2692 18.3334 11.5097 17.9571 12.5649 17.2521C13.6201 16.547 14.4426 15.5449 14.9283 14.3725C15.4139 13.2 15.541 11.9099 15.2935 10.6652C15.046 9.4205 14.4349 8.27716 13.5376 7.37974L9.00009 2.84224ZM9.00009 0.249908L14.8338 6.08358C15.9875 7.23736 16.7733 8.70737 17.0916 10.3077C17.4099 11.9081 17.2465 13.5668 16.6221 15.0743C15.9977 16.5818 14.9402 17.8703 13.5835 18.7768C12.2268 19.6833 10.6318 20.1672 9.00009 20.1672C7.3684 20.1672 5.77335 19.6833 4.41665 18.7768C3.05995 17.8703 2.00252 16.5818 1.3781 15.0743C0.753673 13.5668 0.590289 11.9081 0.908609 10.3077C1.22693 8.70737 2.01266 7.23736 3.16643 6.08358L9.00009 0.249908Z" fill="white"/>
</svg>
